<mxfile host="app.diagrams.net" modified="2023-11-03T13:41:31.845Z" agent="Mozilla/5.0 (Macintosh; Intel Mac OS X 10_15_7) AppleWebKit/537.36 (KHTML, like Gecko) Chrome/117.0.0.0 Safari/537.36" version="22.0.8" etag="6b2Nv2TJqFSaEacKZrka" type="github">
  <diagram name="Page-1" id="oUmjU5SNAi0JGZfhDNk8">
    <mxGraphModel>
      <root>
        <mxCell id="0" />
        <mxCell id="1" parent="0" />
      </root>
    </mxGraphModel>
  </diagram>
</mxfile>
